<svg xmlns="http://www.w3.org/2000/svg" width="28" height="28" viewBox="0 0 28 28">
  <g id="log-in" transform="translate(-0.933 -0.933)">
    <path id="Path_39647" data-name="Path 39647" d="M12.133.933a6.533,6.533,0,1,0,6.533,6.533A6.533,6.533,0,0,0,12.133.933ZM7.467,7.467a4.667,4.667,0,1,1,4.667,4.667A4.667,4.667,0,0,1,7.467,7.467Z" fill="#ee741a" fill-rule="evenodd"/>
    <path id="Path_39648" data-name="Path 39648" d="M23.231,16.554a.933.933,0,0,1-1.319-.056l-3-3.267a.933.933,0,0,1,0-1.263l3-3.267a.933.933,0,1,1,1.375,1.263l-1.563,1.7H28a.933.933,0,1,1,0,1.867H21.724l1.563,1.7A.933.933,0,0,1,23.231,16.554Z" fill="#ee741a"/>
    <path id="Path_39649" data-name="Path 39649" d="M9.114,15.867a8.18,8.18,0,0,0-8.18,8.18A4.886,4.886,0,0,0,5.82,28.933H9.8a.933.933,0,1,0,0-1.867H5.82a3.02,3.02,0,0,1-3.02-3.02,6.314,6.314,0,0,1,6.314-6.314h6.039a6.314,6.314,0,0,1,6.314,6.314,3.02,3.02,0,0,1-3.02,3.02h-3.98a.933.933,0,1,0,0,1.867h3.98a4.886,4.886,0,0,0,4.886-4.886,8.18,8.18,0,0,0-8.18-8.18Z" fill="#ee741a"/>
  </g>
</svg>
