<svg fill="none" height="64" viewBox="0 0 64 64" width="64" xmlns="http://www.w3.org/2000/svg"><g fill="rgb(0,0,0)"><path clip-rule="evenodd" d="m26 2c-7.732 0-14 6.26801-14 14 0 7.732 6.268 14 14 14s14-6.268 14-14c0-7.73199-6.268-14-14-14zm-10 14c0-5.5228 4.4772-10 10-10s10 4.4772 10 10-4.4772 10-10 10-10-4.4772-10-10z" fill-rule="evenodd"/><path d="m49.7814 35.473c-.8136.7472-2.0788.6933-2.8259-.1202l-6.4286-7c-.7025-.765-.7025-1.9406 0-2.7056l6.4286-7c.7471-.8136 2.0123-.8674 2.8259-.1203.8135.7472.8674 2.0123.1202 2.8259l-3.3494 3.6472h13.4478c1.1046 0 2 .8954 2 2s-.8954 2-2 2h-13.4478l3.3494 3.6472c.7472.8135.6933 2.0787-.1202 2.8258z"/><path d="m19.5294 34c-9.68122 0-17.5294 7.8482-17.5294 17.5294 0 5.7828 4.68784 10.4706 10.4706 10.4706h8.5294c1.1046 0 2-.8954 2-2s-.8954-2-2-2h-8.5294c-3.57362 0-6.4706-2.897-6.4706-6.4706 0-7.4721 6.0573-13.5294 13.5294-13.5294h12.9412c7.4721 0 13.5294 6.0573 13.5294 13.5294 0 3.5736-2.897 6.4706-6.4706 6.4706h-8.5294c-1.1046 0-2 .8954-2 2s.8954 2 2 2h8.5294c5.7828 0 10.4706-4.6878 10.4706-10.4706 0-9.6812-7.8482-17.5294-17.5294-17.5294z"/></g></svg>