<svg xmlns="http://www.w3.org/2000/svg" width="18" height="20" viewBox="0 0 18 20">
  <g id="notii" transform="translate(-5218 -7676)">
    <g id="Bell" transform="translate(5218 7676)">
      <path id="Path_38981" data-name="Path 38981" d="M4.459,7.473A7.714,7.714,0,0,1,12,2a7.714,7.714,0,0,1,7.541,5.473c.223.8.43,1.6.586,2.316.364,1.675.667,3.91.854,5.457a2.739,2.739,0,0,1-2.333,3.025A48.17,48.17,0,0,1,12,18.923a48.17,48.17,0,0,1-6.647-.652A2.739,2.739,0,0,1,3.02,15.246c.187-1.547.49-3.783.854-5.457C4.029,9.072,4.237,8.27,4.459,7.473ZM12,3.538a6.143,6.143,0,0,0-6.02,4.34c-.218.782-.417,1.552-.564,2.23-.347,1.6-.644,3.775-.831,5.319A1.194,1.194,0,0,0,5.6,16.752a46.68,46.68,0,0,0,6.4.633,46.679,46.679,0,0,0,6.4-.633,1.194,1.194,0,0,0,1.017-1.325c-.187-1.544-.483-3.719-.831-5.319-.147-.678-.346-1.449-.564-2.23A6.143,6.143,0,0,0,12,3.538Z" transform="translate(-3 -2)" fill="#fff" fill-rule="evenodd"/>
      <path id="Path_38982" data-name="Path 38982" d="M9.9,17.385a.779.779,0,0,1,.788.769V19.18a1.314,1.314,0,0,0,2.627,0V18.154a.788.788,0,0,1,1.576,0V19.18a2.89,2.89,0,0,1-5.779,0V18.154A.779.779,0,0,1,9.9,17.385Z" transform="translate(-3 -2)" fill="#fff" fill-rule="evenodd"/>
    </g>
  </g>
</svg>
