<?xml version="1.0" encoding="UTF-8"?><svg xmlns="http://www.w3.org/2000/svg" xmlns:xlink="http://www.w3.org/1999/xlink" viewBox="0 0 1532.98 583.73"><defs><style>.cls-1{fill:#ececec;opacity:.26;}.cls-2{fill:#dedede;opacity:.45;}.cls-3{fill:#f8f8f8;opacity:.1;}.cls-4{fill:#bfbfbf;opacity:.87;}.cls-5{fill:#bcbcbc;opacity:.9;}.cls-6{fill:#f1f1f1;opacity:.19;}.cls-7{fill:#d4d4d4;opacity:.58;}.cls-8{fill:#fafafa;opacity:.06;}.cls-9{fill:#e7e7e7;opacity:.32;}.cls-10{fill:#f5f5f5;opacity:.13;}.cls-11{fill:#fff;opacity:0;}.cls-12{fill:#eaeaea;opacity:.29;}.cls-13{isolation:isolate;}.cls-14{fill:#d6d6d6;opacity:.55;}.cls-15{fill:#d2d2d2;opacity:.61;}.cls-16{fill:#fdfdfd;opacity:.03;}.cls-17{fill:#c6c6c6;opacity:.77;}.cls-18{fill:#dbdbdb;opacity:.48;}.cls-19{fill:url(#_åçûìÿííûé_ãðàäèåíò_2);}.cls-20{fill:#cbcbcb;opacity:.71;}.cls-21{fill:#e0e0e0;opacity:.42;}.cls-22{fill:#e2e2e2;opacity:.39;}.cls-23{fill:#00425a;}.cls-24{fill:#b7b7b7;opacity:.97;}.cls-25{fill:#d9d9d9;opacity:.52;}.cls-26{fill:#e5e5e5;opacity:.35;}.cls-27{fill:#cfcfcf;opacity:.65;}.cls-28{fill:none;}.cls-29{fill:#eee;opacity:.23;}.cls-30{fill:#cdcdcd;opacity:.68;}.cls-31{fill:#c1c1c1;opacity:.84;}.cls-32{fill:#bababa;opacity:.94;}.cls-33{fill:#b5b5b5;}.cls-34{fill:#ee741a;}.cls-35{fill:#f3f3f3;opacity:.16;}.cls-36{fill:#c3c3c3;opacity:.81;}.cls-37{mix-blend-mode:multiply;}.cls-38{fill:#c8c8c8;opacity:.74;}</style><linearGradient id="_åçûìÿííûé_ãðàäèåíò_2" x1="1338.77" y1="214.02" x2="1312.76" y2="143.97" gradientTransform="matrix(1, 0, 0, 1, 0, 0)" gradientUnits="userSpaceOnUse"><stop offset=".79" stop-color="#d4d4d4"/><stop offset=".91" stop-color="#f2f2f2"/><stop offset=".95" stop-color="#efefef"/><stop offset=".97" stop-color="#e6e6e6"/><stop offset=".98" stop-color="#d9d9d9"/><stop offset=".99" stop-color="#dcdcdc"/><stop offset=".99" stop-color="#e6e6e6"/><stop offset="1" stop-color="#f7f7f7"/><stop offset="1" stop-color="#fff"/></linearGradient></defs><g class="cls-13"><g id="Layer_1"><g><rect class="cls-28" x="1137.98" width="395" height="374"/><g><path class="cls-34" d="M1395.58,141.24c0,16.42-11.21,30.22-26.4,34.15v-13.98c0-14.48-11.73-26.22-26.22-26.22h-17.39v-.02c2.87-16.58,17.33-29.2,34.74-29.2,19.46,0,35.27,15.8,35.27,35.27Z"/><g><path class="cls-23" d="M1349.33,187.17h-54.96c-6.37,0-11.53-5.16-11.53-11.53v-39.22c0-.93,.76-1.69,1.69-1.69h64.8c6.37,0,11.53,5.16,11.53,11.53v29.38c0,6.37-5.16,11.53-11.53,11.53Z"/><path class="cls-23" d="M1302.95,134.76h54.96c6.37,0,11.53,5.16,11.53,11.53v39.22c0,.93-.76,1.69-1.69,1.69h-64.8c-6.37,0-11.53-5.16-11.53-11.53v-29.38c0-6.37,5.16-11.53,11.53-11.53Z"/></g><path class="cls-23" d="M1371.28,186.1h43.27c6.36,0,11.53,5.17,11.53,11.53v29.38c0,6.36-5.17,11.53-11.53,11.53h-33.43c-6.36,0-11.53-5.17-11.53-11.53v-39.22c0-.93,.76-1.69,1.69-1.69Z"/><path class="cls-23" d="M1245.66,185.68h33.43c6.36,0,11.53,5.17,11.53,11.53v29.38c0,6.36-5.17,11.53-11.53,11.53h-43.27c-.93,0-1.69-.76-1.69-1.69v-39.22c0-6.36,5.17-11.53,11.53-11.53Z" transform="translate(2524.74 423.79) rotate(180)"/><g id="_"><g class="cls-37"><path class="cls-11" d="M1285.77,172.54s.89-5.39,8.91-5.93c5.78-.39,7.16-.08,11.19,5.14,3.87,5.02,10.36,2.75,12.28-2.57,2.09-5.81,4.37-11.74,9.74-18.91,7.2-9.6,12.55-13.13,19.26-14.95-13.1,.08-47.43,13.62-54.11,15.78-7.68,2.48-7.28,21.43-7.28,21.43Z"/><path class="cls-16" d="M1285.8,172.17c.03-.14,.95-5.46,8.83-6.05,5.79-.43,7.36,.08,11.33,5.22,3.76,4.87,10.06,2.68,11.92-2.49,2.08-5.68,4.42-11.58,9.86-18.71,7.27-9.54,12.64-13.03,19.4-14.81-13.08,.08-47.42,13.62-54.09,15.78-7.54,2.44-7.21,20.91-7.24,21.06Z"/><path class="cls-8" d="M1285.84,171.79c.06-.28,1.02-5.54,8.74-6.16,5.81-.47,7.56,.25,11.46,5.29,3.64,4.72,9.73,2.59,11.57-2.41,2.04-5.56,4.47-11.41,9.97-18.51,7.34-9.49,12.74-12.93,19.55-14.67-13.06,.09-47.41,13.62-54.08,15.78-7.4,2.39-7.14,20.4-7.21,20.69Z"/><path class="cls-3" d="M1285.87,171.42c.09-.42,1.08-5.62,8.65-6.28,5.83-.51,7.75,.41,11.59,5.36,3.53,4.57,9.42,2.51,11.21-2.32,2.01-5.43,4.52-11.24,10.09-18.32,7.41-9.43,12.83-12.83,19.69-14.53-13.04,.09-47.39,13.62-54.07,15.78-7.26,2.35-7.08,19.88-7.17,20.31Z"/><path class="cls-10" d="M1285.91,171.05c.13-.55,1.14-5.7,8.56-6.39,5.85-.55,7.95,.57,11.73,5.43,3.41,4.42,9.11,2.43,10.86-2.24,1.98-5.3,4.57-11.08,10.21-18.12,7.47-9.37,12.93-12.74,19.84-14.39-13.02,.1-47.38,13.62-54.05,15.78-7.13,2.3-7.01,19.36-7.14,19.94Z"/><path class="cls-35" d="M1285.94,170.68c.16-.69,1.21-5.78,8.47-6.51,5.86-.59,8.16,.73,11.86,5.5,3.31,4.26,8.8,2.35,10.5-2.16,1.95-5.18,4.62-10.91,10.33-17.93,7.54-9.32,13.02-12.64,19.98-14.25-13,.1-47.37,13.62-54.04,15.78-6.99,2.26-6.94,18.85-7.1,19.57Z"/><path class="cls-6" d="M1285.98,170.31c.19-.83,1.27-5.87,8.38-6.63,5.88-.63,8.36,.89,12,5.57,3.2,4.11,8.48,2.27,10.14-2.07,1.93-5.05,4.67-10.74,10.44-17.73,7.61-9.26,13.12-12.54,20.13-14.1-12.98,.11-47.35,13.62-54.03,15.78-6.85,2.21-6.88,18.33-7.07,19.19Z"/><path class="cls-29" d="M1286.02,169.93c.22-.97,1.33-5.95,8.29-6.74,5.9-.67,8.56,1.05,12.13,5.64,3.08,3.95,8.17,2.19,9.79-1.99,1.9-4.92,4.72-10.58,10.56-17.54,7.68-9.21,13.21-12.44,20.27-13.96-12.96,.11-47.34,13.62-54.01,15.78-6.71,2.17-6.81,17.81-7.03,18.82Z"/><path class="cls-1" d="M1286.05,169.56c.25-1.11,1.39-6.04,8.2-6.86,5.92-.71,8.76,1.22,12.27,5.71,2.97,3.8,7.86,2.11,9.43-1.91,1.87-4.8,4.77-10.41,10.68-17.34,7.75-9.15,13.3-12.34,20.42-13.82-12.94,.12-47.33,13.62-54,15.78-6.57,2.12-6.74,17.3-6.99,18.45Z"/><path class="cls-12" d="M1286.09,169.19c.28-1.25,1.46-6.13,8.11-6.98,5.93-.76,8.95,1.38,12.4,5.78,2.86,3.65,7.55,2.03,9.07-1.83,1.85-4.67,4.82-10.24,10.79-17.15,7.82-9.1,13.4-12.24,20.56-13.68-12.92,.12-47.31,13.62-53.98,15.78-6.44,2.08-6.68,16.78-6.96,18.08Z"/><path class="cls-9" d="M1286.12,168.82c.31-1.39,1.52-6.22,8.02-7.09,5.95-.8,9.15,1.54,12.53,5.85,2.74,3.5,7.24,1.95,8.72-1.74,1.82-4.54,4.88-10.08,10.91-16.95,7.88-9.04,13.49-12.15,20.71-13.54-12.9,.13-47.3,13.62-53.97,15.78-6.3,2.03-6.61,16.26-6.92,17.7Z"/><path class="cls-26" d="M1286.16,168.45c.34-1.53,1.58-6.31,7.93-7.21,5.97-.85,9.35,1.7,12.67,5.92,2.63,3.35,6.93,1.87,8.36-1.66,1.79-4.42,4.93-9.91,11.03-16.76,7.95-8.99,13.59-12.05,20.85-13.4-12.89,.13-47.29,13.62-53.96,15.78-6.16,1.99-6.54,15.75-6.89,17.33Z"/><path class="cls-22" d="M1286.19,168.07c.38-1.66,1.64-6.4,7.84-7.33s9.55,1.86,12.8,5.99c2.52,3.2,6.62,1.79,8.01-1.58,1.77-4.29,4.98-9.74,11.15-16.56,8.02-8.93,13.68-11.95,21-13.26-12.87,.14-47.27,13.62-53.94,15.78-6.02,1.95-6.48,15.23-6.85,16.96Z"/><path class="cls-21" d="M1286.23,167.7c.41-1.8,1.71-6.49,7.75-7.44s9.75,2.03,12.94,6.06c2.4,3.05,6.31,1.71,7.65-1.5,1.74-4.16,5.03-9.57,11.26-16.37,8.09-8.88,13.78-11.85,21.14-13.12-12.85,.14-47.26,13.62-53.93,15.78-5.88,1.9-6.41,14.71-6.82,16.59Z"/><path class="cls-2" d="M1286.26,167.33c.44-1.94,1.77-6.59,7.66-7.56s9.95,2.19,13.07,6.13c2.29,2.89,6,1.63,7.29-1.41,1.71-4.04,5.08-9.41,11.38-16.17,8.16-8.82,13.87-11.75,21.29-12.98-12.83,.15-47.25,13.62-53.92,15.78-5.74,1.86-6.34,14.19-6.78,16.21Z"/><path class="cls-18" d="M1286.3,166.96c.47-2.08,1.83-6.69,7.57-7.67,6.04-1.04,10.15,2.35,13.21,6.21,2.18,2.74,5.69,1.55,6.94-1.33,1.69-3.91,5.13-9.24,11.5-15.98,8.23-8.77,13.97-11.65,21.43-12.84-12.81,.15-47.23,13.62-53.9,15.78-5.61,1.81-6.28,13.68-6.75,15.84Z"/><path class="cls-25" d="M1286.33,166.59c.5-2.22,1.89-6.79,7.48-7.79,6.06-1.09,10.35,2.51,13.34,6.28,2.06,2.59,5.39,1.47,6.58-1.25,1.66-3.79,5.18-9.07,11.62-15.78,8.3-8.71,14.06-11.56,21.58-12.7-12.79,.16-47.22,13.62-53.89,15.78-5.47,1.77-6.21,13.16-6.71,15.47Z"/><path class="cls-14" d="M1286.37,166.21c.53-2.36,1.95-6.88,7.4-7.91,6.08-1.14,10.55,2.68,13.47,6.35,1.95,2.44,5.08,1.39,6.23-1.16,1.64-3.66,5.23-8.91,11.73-15.59,8.36-8.66,14.16-11.46,21.72-12.56-12.77,.16-47.2,13.62-53.88,15.78-5.33,1.72-6.14,12.64-6.68,15.09Z"/><path class="cls-7" d="M1286.41,165.84c.56-2.5,2.02-6.99,7.31-8.02,6.1-1.2,10.74,2.84,13.61,6.42,1.83,2.29,4.77,1.32,5.87-1.08,1.61-3.53,5.28-8.74,11.85-15.39,8.43-8.6,14.25-11.36,21.87-12.42-12.75,.17-47.19,13.62-53.86,15.78-5.19,1.68-6.08,12.13-6.64,14.72Z"/><path class="cls-15" d="M1286.44,165.47c.59-2.63,2.08-7.09,7.22-8.14,6.11-1.25,10.94,3,13.74,6.49,1.72,2.14,4.47,1.24,5.51-1,1.59-3.41,5.33-8.57,11.97-15.2,8.5-8.55,14.35-11.26,22.01-12.28-12.73,.17-47.18,13.62-53.85,15.78-5.05,1.63-6.01,11.61-6.6,14.35Z"/><path class="cls-27" d="M1286.48,165.1c.63-2.77,2.14-7.19,7.13-8.26,6.13-1.31,11.14,3.16,13.88,6.56,1.61,1.99,4.16,1.16,5.16-.92,1.57-3.28,5.39-8.41,12.09-15,8.57-8.49,14.44-11.16,22.16-12.14-12.71,.18-47.16,13.62-53.84,15.78-4.92,1.59-5.94,11.09-6.57,13.98Z"/><path class="cls-30" d="M1286.51,164.73c.66-2.91,2.2-7.3,7.04-8.37,6.15-1.37,11.34,3.33,14.01,6.63,1.49,1.84,3.86,1.08,4.8-.83,1.55-3.16,5.44-8.24,12.2-14.81,8.64-8.43,14.54-11.06,22.3-12-12.69,.18-47.15,13.62-53.82,15.78-4.78,1.54-5.88,10.58-6.53,13.6Z"/><path class="cls-20" d="M1286.55,164.35c.69-3.05,2.26-7.4,6.95-8.49,6.16-1.43,11.54,3.49,14.14,6.7,1.37,1.69,3.56,1,4.44-.75,1.53-3.03,5.49-8.07,12.32-14.61,8.71-8.38,14.63-10.97,22.45-11.86-12.67,.19-47.14,13.62-53.81,15.78-4.64,1.5-5.81,10.06-6.5,13.23Z"/><path class="cls-38" d="M1286.58,163.98c.72-3.19,2.32-7.51,6.86-8.61,6.18-1.49,11.73,3.65,14.28,6.77,1.26,1.54,3.26,.93,4.09-.67,1.51-2.9,5.54-7.91,12.44-14.42,8.77-8.32,14.73-10.87,22.59-11.72-12.65,.19-47.12,13.62-53.79,15.78-4.5,1.45-5.74,9.54-6.46,12.86Z"/><path class="cls-17" d="M1286.62,163.61c.75-3.33,2.38-7.62,6.77-8.72,6.19-1.55,11.93,3.82,14.41,6.84,1.14,1.39,2.96,.85,3.73-.58,1.49-2.77,5.59-7.74,12.56-14.22,8.84-8.27,14.82-10.77,22.74-11.58-12.63,.2-47.11,13.63-53.78,15.78-4.36,1.41-5.68,9.03-6.43,12.49Z"/><path class="cls-36" d="M1286.65,163.24c.78-3.47,2.44-7.73,6.68-8.84,6.2-1.62,12.13,3.98,14.55,6.91,1.03,1.24,2.66,.78,3.38-.5,1.47-2.65,5.64-7.57,12.67-14.02,8.91-8.21,14.92-10.67,22.88-11.44-12.61,.2-47.1,13.63-53.77,15.78-4.22,1.36-5.61,8.51-6.39,12.11Z"/><path class="cls-31" d="M1286.69,162.87c.81-3.6,2.49-7.84,6.59-8.95,6.22-1.69,12.32,4.14,14.68,6.98,.91,1.1,2.37,.7,3.02-.42,1.46-2.52,5.69-7.41,12.79-13.83,8.98-8.16,15.01-10.57,23.03-11.3-12.59,.21-47.08,13.63-53.75,15.78-4.09,1.32-5.54,7.99-6.36,11.74Z"/><path class="cls-4" d="M1286.72,162.49c.84-3.74,2.55-7.95,6.5-9.07,6.23-1.76,12.52,4.31,14.82,7.05,.79,.95,2.08,.63,2.66-.34,1.45-2.38,5.74-7.24,12.91-13.63,9.05-8.1,15.1-10.47,23.17-11.16-12.57,.21-47.07,13.63-53.74,15.78-3.95,1.28-5.48,7.48-6.32,11.37Z"/><path class="cls-5" d="M1286.76,162.12c.88-3.88,2.61-8.07,6.41-9.19,6.24-1.84,12.71,4.48,14.95,7.12,.68,.8,1.78,.56,2.31-.25,1.45-2.25,5.79-7.07,13.03-13.44,9.12-8.05,15.2-10.38,23.32-11.02-12.55,.22-47.06,13.63-53.73,15.78-3.81,1.23-5.41,6.96-6.29,10.99Z"/><path class="cls-32" d="M1286.8,161.75c.91-4.02,2.67-8.18,6.32-9.3,6.25-1.92,12.9,4.65,15.08,7.19,.56,.65,1.49,.49,1.95-.17,1.46-2.1,5.84-6.9,13.14-13.24,9.19-7.99,15.29-10.28,23.46-10.88-12.53,.22-47.04,13.63-53.71,15.78-3.67,1.19-5.34,6.44-6.25,10.62Z"/><path class="cls-24" d="M1286.83,161.38c.94-4.16,2.72-8.3,6.23-9.42,6.25-2,13.09,4.82,15.22,7.27,.44,.5,1.21,.42,1.6-.09,1.48-1.95,5.9-6.74,13.26-13.05,9.25-7.94,15.39-10.18,23.61-10.74-12.51,.23-47.03,13.63-53.7,15.78-3.53,1.14-5.28,5.92-6.21,10.25Z"/><path class="cls-33" d="M1286.87,161.01c.97-4.3,2.78-8.41,6.14-9.54,6.26-2.09,13.26,5,15.35,7.34,.32,.36,.92,.36,1.24,0,1.54-1.76,5.95-6.57,13.38-12.85,9.32-7.88,15.48-10.08,23.75-10.6-12.49,.23-47.01,13.63-53.69,15.78-3.39,1.1-5.21,5.41-6.18,9.88Z"/></g><path class="cls-19" d="M1285.77,172.54s-.33-18.61,7.24-21.07c7.48-2.43,15.97,8.06,15.97,8.06,0,0,4.57-5.61,14-13.58,9.37-7.92,16.46-10.3,24.17-10.62-13.1,.08-47.43,13.62-54.11,15.78-7.81,2.52-7.28,21.43-7.28,21.43Z"/></g></g></g></g></g></svg>