<svg xmlns="http://www.w3.org/2000/svg" xmlns:xlink="http://www.w3.org/1999/xlink" width="191.959" height="132.573" viewBox="0 0 191.959 132.573">
  <defs>
    <linearGradient id="linear-gradient" x1="0.863" y1="2.115" x2="0.44" y2="0.232" gradientUnits="objectBoundingBox">
      <stop offset="0.789" stop-color="#d4d4d4"/>
      <stop offset="0.914" stop-color="#f2f2f2"/>
      <stop offset="0.945" stop-color="#efefef"/>
      <stop offset="0.965" stop-color="#e6e6e6"/>
      <stop offset="0.981" stop-color="#d9d9d9"/>
      <stop offset="0.987" stop-color="#dcdcdc"/>
      <stop offset="0.993" stop-color="#e6e6e6"/>
      <stop offset="0.997" stop-color="#f7f7f7"/>
      <stop offset="0.999" stop-color="#fff"/>
    </linearGradient>
  </defs>
  <g id="ssplash" transform="translate(-100.431 -302.97)">
    <path id="Path_23642" data-name="Path 23642" d="M310.478,83.026a35.286,35.286,0,0,1-26.4,34.152V103.194a26.211,26.211,0,0,0-26.217-26.217h-17.4v-.022a35.269,35.269,0,0,1,70.011,6.071Z" transform="translate(-48.59 255.211)" fill="#ee741a"/>
    <g id="Group_143051" data-name="Group 143051" transform="translate(-48.59 255.211)">
      <path id="Rectangle_161634" data-name="Rectangle 161634" d="M1.688,0h64.8A11.531,11.531,0,0,1,78.02,11.531V40.908A11.531,11.531,0,0,1,66.489,52.44H11.531A11.531,11.531,0,0,1,0,40.908V1.688A1.688,1.688,0,0,1,1.688,0Z" transform="translate(197.73 76.518)" fill="#00425a"/>
      <path id="Rectangle_161635" data-name="Rectangle 161635" d="M1.688,0h64.8A11.531,11.531,0,0,1,78.02,11.531V40.908A11.531,11.531,0,0,1,66.489,52.44H11.531A11.531,11.531,0,0,1,0,40.908V1.688A1.688,1.688,0,0,1,1.688,0Z" transform="translate(284.33 128.985) rotate(-180)" fill="#00425a"/>
    </g>
    <path id="Rectangle_161636" data-name="Rectangle 161636" d="M1.688,0H44.959A11.531,11.531,0,0,1,56.49,11.531V40.908A11.531,11.531,0,0,1,44.959,52.44H11.531A11.531,11.531,0,0,1,0,40.908V1.688A1.688,1.688,0,0,1,1.688,0Z" transform="translate(235.9 383.104)" fill="#00425a"/>
    <path id="Rectangle_161637" data-name="Rectangle 161637" d="M11.531,0H44.959A11.531,11.531,0,0,1,56.49,11.531V40.908A11.531,11.531,0,0,1,44.959,52.44H1.688A1.688,1.688,0,0,1,0,50.752V11.531A11.531,11.531,0,0,1,11.531,0Z" transform="translate(156.921 435.117) rotate(180)" fill="#00425a"/>
    <g id="_1" data-name="1" transform="translate(-48.59 255.211)">
      <g id="Group_143052" data-name="Group 143052" style="mix-blend-mode: multiply;isolation: isolate">
        <path id="Path_23643" data-name="Path 23643" d="M200.661,114.328s.892-5.389,8.915-5.929c5.777-.389,7.162-.081,11.192,5.145,3.87,5.018,10.362,2.754,12.28-2.571,2.094-5.813,4.365-11.745,9.738-18.9,7.2-9.6,12.546-13.129,19.26-14.946-13.1.077-47.435,13.619-54.107,15.775C200.26,95.378,200.661,114.328,200.661,114.328Z" fill="#fff" opacity="0"/>
        <path id="Path_23644" data-name="Path 23644" d="M200.7,113.956c.032-.139.955-5.464,8.826-6.045,5.794-.428,7.359.083,11.326,5.215,3.756,4.868,10.058,2.677,11.924-2.488a64.6,64.6,0,0,1,9.855-18.71c7.269-9.541,12.642-13.03,19.405-14.806-13.081.082-47.421,13.62-54.093,15.775C200.4,95.334,200.728,113.812,200.7,113.956Z" fill="#fdfdfd" opacity="0.032"/>
        <path id="Path_23645" data-name="Path 23645" d="M200.732,113.584c.062-.277,1.017-5.542,8.736-6.162,5.811-.467,7.555.247,11.461,5.287,3.64,4.717,9.734,2.593,11.567-2.406a63.244,63.244,0,0,1,9.973-18.515c7.337-9.485,12.736-12.932,19.55-14.665-13.062.087-47.408,13.62-54.08,15.775C200.536,95.29,200.794,113.3,200.732,113.584Z" fill="#fafafa" opacity="0.065"/>
        <path id="Path_23646" data-name="Path 23646" d="M200.767,113.212c.094-.416,1.08-5.62,8.647-6.278,5.828-.507,7.752.411,11.6,5.357,3.526,4.567,9.422,2.512,11.211-2.323a62.3,62.3,0,0,1,10.09-18.319c7.406-9.431,12.831-12.834,19.7-14.526-13.042.093-47.394,13.62-54.066,15.776C200.674,95.246,200.861,112.779,200.767,113.212Z" fill="#f8f8f8" opacity="0.097"/>
        <path id="Path_23647" data-name="Path 23647" d="M200.8,112.84c.125-.555,1.142-5.7,8.557-6.394,5.845-.547,7.949.575,11.729,5.427,3.412,4.417,9.109,2.432,10.855-2.24a61.464,61.464,0,0,1,10.208-18.124c7.474-9.375,12.925-12.736,19.839-14.385-13.022.1-47.38,13.62-54.052,15.776C200.813,95.2,200.928,112.263,200.8,112.84Z" fill="#f5f5f5" opacity="0.129"/>
        <path id="Path_23648" data-name="Path 23648" d="M200.838,112.468c.156-.693,1.205-5.783,8.468-6.511,5.863-.588,8.158.73,11.863,5.5,3.308,4.257,8.8,2.351,10.5-2.158a60.733,60.733,0,0,1,10.325-17.929c7.543-9.319,13.021-12.637,19.985-14.245-13,.1-47.367,13.621-54.039,15.776C200.951,95.158,200.994,111.747,200.838,112.468Z" fill="#f3f3f3" opacity="0.161"/>
        <path id="Path_23649" data-name="Path 23649" d="M200.874,112.1c.187-.832,1.267-5.866,8.378-6.627,5.881-.63,8.357.891,12,5.569,3.2,4.106,8.484,2.271,10.142-2.075A60.062,60.062,0,0,1,241.835,91.23c7.611-9.265,13.115-12.539,20.129-14.105-12.983.107-47.353,13.621-54.025,15.776C201.089,95.114,201.061,111.231,200.874,112.1Z" fill="#f1f1f1" opacity="0.194"/>
        <path id="Path_23650" data-name="Path 23650" d="M200.909,111.724c.219-.971,1.331-5.951,8.289-6.744,5.9-.671,8.556,1.054,12.132,5.64,3.083,3.954,8.172,2.191,9.786-1.992a59.5,59.5,0,0,1,10.56-17.538c7.68-9.209,13.21-12.441,20.275-13.965-12.964.113-47.34,13.621-54.012,15.777C201.227,95.07,201.128,110.715,200.909,111.724Z" fill="#eee" opacity="0.226"/>
        <path id="Path_23651" data-name="Path 23651" d="M200.944,111.352c.25-1.109,1.394-6.038,8.2-6.86,5.917-.714,8.756,1.216,12.266,5.71,2.97,3.8,7.861,2.111,9.431-1.908A58.98,58.98,0,0,1,241.518,90.95c7.748-9.154,13.3-12.342,20.419-13.824-12.944.117-47.326,13.621-54,15.777C201.365,95.026,201.2,110.2,200.944,111.352Z" fill="#ececec" opacity="0.258"/>
        <path id="Path_23652" data-name="Path 23652" d="M200.98,110.98c.281-1.248,1.456-6.126,8.11-6.976,5.935-.758,8.955,1.378,12.4,5.781,2.857,3.651,7.55,2.03,9.075-1.826A58.605,58.605,0,0,1,241.359,90.81c7.817-9.1,13.4-12.244,20.565-13.684C249,77.249,214.611,90.748,207.939,92.9,201.5,94.983,201.261,109.683,200.98,110.98Z" fill="#eaeaea" opacity="0.29"/>
        <path id="Path_23653" data-name="Path 23653" d="M201.015,110.608c.313-1.387,1.519-6.216,8.021-7.093,5.953-.8,9.154,1.54,12.535,5.852,2.744,3.5,7.239,1.951,8.718-1.743,1.819-4.544,4.875-10.076,10.912-16.953,7.885-9.043,13.494-12.146,20.709-13.544-12.9.127-47.3,13.622-53.971,15.777C201.642,94.939,201.328,109.166,201.015,110.608Z" fill="#e7e7e7" opacity="0.323"/>
        <path id="Path_23654" data-name="Path 23654" d="M201.051,110.236a8.807,8.807,0,0,1,7.931-7.209c5.971-.848,9.353,1.7,12.669,5.922,2.631,3.349,6.929,1.871,8.362-1.66,1.792-4.418,4.926-9.909,11.029-16.758,7.954-8.988,13.589-12.047,20.854-13.4-12.885.133-47.285,13.622-53.957,15.778C201.78,94.895,201.4,108.65,201.051,110.236Z" fill="#e5e5e5" opacity="0.355"/>
        <path id="Path_23655" data-name="Path 23655" d="M201.086,109.864a8.876,8.876,0,0,1,7.842-7.325c5.989-.9,9.552,1.864,12.8,5.993,2.518,3.2,6.619,1.791,8.006-1.578,1.766-4.291,4.977-9.742,11.147-16.563,8.022-8.932,13.683-11.949,21-13.263-12.866.137-47.272,13.622-53.944,15.778C201.918,94.851,201.461,108.134,201.086,109.864Z" fill="#e2e2e2" opacity="0.387"/>
        <path id="Path_23656" data-name="Path 23656" d="M201.122,109.492a8.954,8.954,0,0,1,7.752-7.442c6.007-.941,9.751,2.027,12.937,6.064,2.4,3.046,6.31,1.711,7.65-1.495,1.74-4.165,5.028-9.575,11.264-16.367,8.091-8.878,13.779-11.851,21.144-13.124-12.846.143-47.258,13.623-53.93,15.778C202.056,94.807,201.528,107.618,201.122,109.492Z" fill="#e0e0e0" opacity="0.419"/>
        <path id="Path_23657" data-name="Path 23657" d="M201.157,109.12a9.038,9.038,0,0,1,7.663-7.558c6.026-.99,9.95,2.189,13.071,6.134,2.291,2.9,6,1.632,7.294-1.412,1.714-4.038,5.08-9.408,11.382-16.172,8.159-8.822,13.873-11.752,21.289-12.983-12.827.148-47.245,13.623-53.917,15.778C202.194,94.763,201.6,107.1,201.157,109.12Z" fill="#dedede" opacity="0.452"/>
        <path id="Path_23658" data-name="Path 23658" d="M201.193,108.748c.468-2.08,1.83-6.687,7.574-7.674,6.043-1.04,10.147,2.351,13.205,6.205,2.177,2.744,5.693,1.552,6.937-1.33,1.689-3.912,5.131-9.241,11.5-15.977,8.228-8.767,13.968-11.654,21.434-12.843-12.807.153-47.231,13.623-53.9,15.779C202.333,94.719,201.662,106.586,201.193,108.748Z" fill="#dbdbdb" opacity="0.484"/>
        <path id="Path_23659" data-name="Path 23659" d="M201.228,108.376c.5-2.218,1.892-6.785,7.485-7.791,6.06-1.09,10.346,2.514,13.339,6.276,2.063,2.593,5.386,1.473,6.581-1.247,1.664-3.786,5.182-9.074,11.617-15.782,8.3-8.711,14.062-11.555,21.579-12.7-12.788.158-47.218,13.623-53.89,15.779C202.471,94.675,201.728,106.07,201.228,108.376Z" fill="#d9d9d9" opacity="0.516"/>
        <path id="Path_23660" data-name="Path 23660" d="M201.263,108c.532-2.357,1.954-6.885,7.4-7.907,6.078-1.142,10.545,2.676,13.473,6.346,1.949,2.443,5.08,1.395,6.225-1.164,1.639-3.66,5.233-8.907,11.735-15.586,8.364-8.656,14.157-11.458,21.723-12.563-12.768.163-47.2,13.624-53.876,15.779C202.609,94.631,201.795,105.554,201.263,108Z" fill="#d6d6d6" opacity="0.548"/>
        <path id="Path_23661" data-name="Path 23661" d="M201.3,107.632c.562-2.5,2.015-6.986,7.306-8.024,6.1-1.195,10.743,2.839,13.607,6.418,1.835,2.292,4.774,1.315,5.869-1.082,1.615-3.533,5.284-8.74,11.852-15.391,8.433-8.6,14.252-11.359,21.868-12.422-12.748.168-47.19,13.624-53.862,15.779C202.747,94.588,201.862,105.037,201.3,107.632Z" fill="#d4d4d4" opacity="0.581"/>
        <path id="Path_23662" data-name="Path 23662" d="M201.334,107.26c.594-2.634,2.077-7.089,7.217-8.14,6.113-1.25,10.942,3,13.742,6.488,1.72,2.142,4.468,1.237,5.512-1,1.592-3.407,5.335-8.573,11.97-15.2,8.5-8.545,14.346-11.26,22.013-12.281-12.729.172-47.178,13.623-53.849,15.779C202.885,94.544,201.928,104.521,201.334,107.26Z" fill="#d2d2d2" opacity="0.613"/>
        <path id="Path_23663" data-name="Path 23663" d="M201.37,106.888c.625-2.773,2.137-7.192,7.127-8.256,6.129-1.307,11.14,3.163,13.876,6.558,1.6,1.992,4.165,1.16,5.157-.915,1.568-3.282,5.385-8.407,12.086-15,8.57-8.491,14.441-11.163,22.158-12.142-12.709.178-47.164,13.624-53.835,15.78C203.024,94.5,201.995,104,201.37,106.888Z" fill="#cfcfcf" opacity="0.645"/>
        <path id="Path_23664" data-name="Path 23664" d="M201.4,106.516c.657-2.912,2.2-7.3,7.038-8.373,6.146-1.365,11.338,3.327,14.01,6.63,1.49,1.841,3.862,1.081,4.8-.833,1.546-3.155,5.436-8.24,12.2-14.806,8.638-8.435,14.536-11.064,22.3-12-12.69.182-47.151,13.624-53.822,15.78C203.162,94.456,202.062,103.489,201.4,106.516Z" fill="#cdcdcd" opacity="0.677"/>
        <path id="Path_23665" data-name="Path 23665" d="M201.441,106.144c.687-3.05,2.258-7.4,6.948-8.489,6.162-1.426,11.536,3.489,14.144,6.7,1.375,1.692,3.561,1,4.445-.75,1.525-3.029,5.487-8.073,12.321-14.611,8.707-8.38,14.631-10.966,22.448-11.861-12.67.188-47.137,13.625-53.808,15.78C203.3,94.412,202.128,102.973,201.441,106.144Z" fill="#cbcbcb" opacity="0.71"/>
        <path id="Path_23666" data-name="Path 23666" d="M201.476,105.772c.719-3.189,2.318-7.511,6.859-8.605,6.177-1.489,11.733,3.652,14.279,6.77,1.259,1.543,3.26.928,4.088-.667,1.506-2.9,5.539-7.906,12.439-14.416,8.774-8.324,14.725-10.867,22.593-11.72-12.651.193-47.124,13.625-53.8,15.78C203.438,94.368,202.2,102.457,201.476,105.772Z" fill="#c8c8c8" opacity="0.742"/>
        <path id="Path_23667" data-name="Path 23667" d="M201.512,105.4c.75-3.327,2.377-7.62,6.769-8.722,6.191-1.553,11.93,3.816,14.413,6.841,1.143,1.394,2.961.852,3.732-.584,1.488-2.774,5.59-7.739,12.556-14.22,8.843-8.269,14.821-10.769,22.738-11.581-12.631.2-47.11,13.625-53.781,15.781C203.576,94.324,202.262,101.941,201.512,105.4Z" fill="#c6c6c6" opacity="0.774"/>
        <path id="Path_23668" data-name="Path 23668" d="M201.547,105.028c.781-3.466,2.436-7.73,6.68-8.838,6.205-1.62,12.127,3.98,14.547,6.912a2,2,0,0,0,3.376-.5c1.473-2.646,5.641-7.572,12.674-14.025,8.911-8.214,14.915-10.671,22.882-11.44-12.611.2-47.1,13.625-53.767,15.781C203.715,94.28,202.329,101.424,201.547,105.028Z" fill="#c3c3c3" opacity="0.806"/>
        <path id="Path_23669" data-name="Path 23669" d="M201.582,104.656c.813-3.6,2.495-7.841,6.591-8.955,6.218-1.689,12.323,4.145,14.681,6.983a1.807,1.807,0,0,0,3.02-.419c1.461-2.516,5.692-7.4,12.791-13.83,8.98-8.158,15.01-10.572,23.028-11.3-12.592.208-47.083,13.626-53.754,15.781C203.853,94.236,202.4,100.908,201.582,104.656Z" fill="#c1c1c1" opacity="0.839"/>
        <path id="Path_23670" data-name="Path 23670" d="M201.618,104.284c.844-3.743,2.552-7.953,6.5-9.071,6.229-1.763,12.518,4.31,14.816,7.053a1.609,1.609,0,0,0,2.663-.336c1.453-2.383,5.743-7.238,12.909-13.634,9.048-8.1,15.1-10.475,23.172-11.16-12.572.213-47.069,13.626-53.74,15.781C203.991,94.192,202.462,100.392,201.618,104.284Z" fill="#bfbfbf" opacity="0.871"/>
        <path id="Path_23671" data-name="Path 23671" d="M201.653,103.912c.875-3.882,2.61-8.067,6.412-9.187,6.24-1.839,12.711,4.476,14.95,7.124a1.414,1.414,0,0,0,2.307-.254c1.451-2.247,5.794-7.071,13.026-13.439,9.117-8.048,15.2-10.376,23.318-11.02-12.553.218-47.056,13.626-53.727,15.782C204.129,94.149,202.529,99.876,201.653,103.912Z" fill="#bcbcbc" opacity="0.903"/>
        <path id="Path_23672" data-name="Path 23672" d="M201.689,103.54c.906-4.021,2.666-8.181,6.322-9.3,6.248-1.918,12.9,4.646,15.084,7.195a1.219,1.219,0,0,0,1.951-.171c1.459-2.1,5.845-6.9,13.144-13.244,9.185-7.993,15.294-10.277,23.462-10.879-12.533.223-47.042,13.626-53.713,15.782C204.267,94.105,202.6,99.36,201.689,103.54Z" fill="#bababa" opacity="0.935"/>
        <path id="Path_23673" data-name="Path 23673" d="M201.724,103.168c.938-4.159,2.722-8.3,6.233-9.42,6.255-2,13.087,4.819,15.218,7.265a1.029,1.029,0,0,0,1.6-.088c1.483-1.945,5.9-6.737,13.261-13.049,9.254-7.937,15.389-10.179,23.608-10.739-12.514.228-47.029,13.627-53.7,15.782C204.406,94.061,202.662,98.844,201.724,103.168Z" fill="#b7b7b7" opacity="0.968"/>
        <path id="Path_23674" data-name="Path 23674" d="M201.76,102.8c.968-4.3,2.776-8.412,6.143-9.536,6.26-2.09,13.263,5,15.353,7.336a.845.845,0,0,0,1.238-.006,127.5,127.5,0,0,1,13.379-12.853c9.322-7.882,15.483-10.081,23.752-10.6-12.494.233-47.015,13.627-53.686,15.782C204.544,94.017,202.729,98.328,201.76,102.8Z" fill="#b5b5b5"/>
      </g>
      <path id="Path_23675" data-name="Path 23675" d="M200.661,114.328s-.327-18.611,7.242-21.068c7.484-2.43,15.973,8.055,15.973,8.055a116.733,116.733,0,0,1,14-13.578c9.372-7.924,16.463-10.3,24.173-10.615-13.1.077-47.433,13.624-54.107,15.775C200.126,95.414,200.661,114.328,200.661,114.328Z" fill="url(#linear-gradient)"/>
    </g>
  </g>
</svg>
