<svg id="Bell" xmlns="http://www.w3.org/2000/svg" width="29.777" height="35.691" viewBox="0 0 29.777 35.691">
  <path id="Path_38981" data-name="Path 38981" d="M5.414,12.548C6.946,6.159,12.155,2,17.889,2S28.832,6.159,30.363,12.548c.368,1.536.711,3.081.969,4.463.6,3.227,1.1,7.535,1.413,10.517.292,2.807-1.39,5.379-3.859,5.829a68.785,68.785,0,0,1-11,1.257,68.786,68.786,0,0,1-11-1.257c-2.469-.45-4.151-3.022-3.859-5.829.31-2.982.811-7.29,1.413-10.517C4.7,15.629,5.046,14.084,5.414,12.548ZM17.889,4.965A10.446,10.446,0,0,0,7.93,13.328c-.361,1.506-.69,2.991-.934,4.3C6.422,20.71,5.932,24.9,5.622,27.877A2.263,2.263,0,0,0,7.305,30.43a66.662,66.662,0,0,0,10.583,1.219A66.661,66.661,0,0,0,28.472,30.43a2.263,2.263,0,0,0,1.683-2.553c-.309-2.975-.8-7.166-1.374-10.25-.243-1.307-.573-2.792-.934-4.3A10.446,10.446,0,0,0,17.889,4.965Z" transform="translate(-3 -2)" fill="#fff" fill-rule="evenodd"/>
  <path id="Path_38982" data-name="Path 38982" d="M9.9,17.385a.779.779,0,0,1,.788.769V19.18a1.314,1.314,0,0,0,2.627,0V18.154a.788.788,0,0,1,1.576,0V19.18a2.89,2.89,0,0,1-5.779,0V18.154A.779.779,0,0,1,9.9,17.385Z" transform="translate(2.889 13.691)" fill="#fff" fill-rule="evenodd"/>
</svg>
